# xmcd
#
# Track frame offsets: 
#        150
#        22264
#        46968
#        73153
#        90614
#        103775
#        127256
#        150155
#        165615
#        190606
#        208345
#
# Disc length: 3125 seconds
#
# Revision: 0
# Processed by: cddbd v1.5.1PL0 Copyright (c) Steve Scherf et al.
# Submitted via: ExactAudioCopy v0.95b2
#
DISCID=990c330b
DTITLE=Ingram Washington - Sweet 'n' Low_Ingram Washington
DYEAR=1900
DGENRE=Blues
TTITLE0=Embraceable You
TTITLE1=Weaver of Dreams
TTITLE2=Don't Go To Strangers
TTITLE3=I'm Old Fashioned
TTITLE4=Imagination
TTITLE5=Save Your Love For Me
TTITLE6=How Do You Keep The Music Playing
TTITLE7=Summer Wind
TTITLE8=Sleepless Hours
TTITLE9=Love Letters
TTITLE10=Don't Misunderstand
EXTD=
EXTT0=
EXTT1=
EXTT2=
EXTT3=
EXTT4=
EXTT5=
EXTT6=
EXTT7=
EXTT8=
EXTT9=
EXTT10=
PLAYORDER=
